# xmcd
#
# Track frame offsets:
#	150
#	22330
#	46098
#	63917
#	100001
#	112582
#	143567
#	253839
#
# Disc length: 4348 seconds
#
# Revision: 1
# Processed by: cddbd v1.5.2PL0 Copyright (c) Steve Scherf et al.
# Submitted via: audiograbber 1.83.01
#
DISCID=6010fa08
DTITLE=Fleetwood Mac - Cerulean - Live 1969
DYEAR=1969
DGENRE=Rock
TTITLE0=Black magic woman
TTITLE1=Sandry Mary
TTITLE2=Stranger Blues
TTITLE3=Jenny Jenny
TTITLE4=Loving Kind
TTITLE5=Tutti Frutti
TTITLE6=Rattlesnake shake
TTITLE7=Green Manalishi
EXTD=
EXTT0=
EXTT1=
EXTT2=
EXTT3=
EXTT4=
EXTT5=
EXTT6=
EXTT7=
PLAYORDER=
